<?xml version="1.0" standalone="no"?>
<!DOCTYPE svg PUBLIC "-//W3C//DTD SVG 20010904//EN"
 "http://www.w3.org/TR/2001/REC-SVG-20010904/DTD/svg10.dtd">
<svg version="1.0" xmlns="http://www.w3.org/2000/svg"
 width="199.000000pt" height="92.000000pt" viewBox="0 0 199.000000 92.000000"
 preserveAspectRatio="xMidYMid meet">

<g transform="translate(0.000000,92.000000) scale(0.100000,-0.100000)"
fill="#000000" stroke="none">
<path d="M918 884 c-32 -17 -80 -83 -71 -97 3 -6 1 -7 -5 -3 -9 5 -29 -32 -23
-43 2 -2 -2 -7 -7 -10 -23 -15 -101 -220 -126 -333 -7 -29 -63 -88 -83 -88
-19 0 -16 35 9 92 18 42 19 51 7 59 -36 22 -55 3 -71 -73 -10 -47 -9 -57 7
-81 27 -41 63 -46 92 -13 l23 27 0 -28 c0 -35 25 -73 48 -72 11 0 28 23 46 60
55 111 137 183 122 106 -3 -17 -7 -38 -8 -45 -2 -16 -35 -52 -67 -73 -30 -19
-23 -49 11 -49 16 0 48 26 101 82 42 44 79 79 82 76 3 -2 -2 -38 -11 -78 -18
-90 -12 -143 23 -169 44 -35 99 2 175 116 23 35 44 63 46 63 2 0 15 -9 29 -20
34 -26 47 -25 76 6 l24 26 21 -35 c26 -45 70 -57 111 -30 15 10 48 41 71 68
56 65 73 72 80 31 8 -48 42 -47 71 1 24 39 79 108 79 98 0 -3 -7 -16 -15 -29
-8 -12 -18 -43 -21 -69 -5 -38 -3 -51 11 -67 32 -35 60 -25 115 41 46 55 59
79 44 79 -3 0 -31 -23 -61 -50 -30 -28 -59 -50 -64 -50 -23 0 14 113 45 139
18 15 22 66 6 76 -21 13 -47 -7 -100 -79 -30 -41 -56 -73 -58 -72 -8 8 19 92
38 118 23 31 19 48 -11 48 -19 0 -30 -18 -59 -97 -6 -17 -21 -33 -32 -36 -14
-4 -18 -2 -14 10 27 68 13 128 -35 153 -26 14 -62 -7 -84 -50 -8 -16 -29 -37
-45 -45 -16 -8 -48 -42 -70 -75 -43 -63 -82 -96 -100 -85 -12 7 -7 31 21 89
24 50 24 53 -1 61 -29 9 -48 -10 -61 -59 -12 -45 -102 -187 -143 -225 -38 -35
-56 -22 -56 41 0 91 28 164 107 279 82 119 128 207 138 260 5 30 2 41 -18 64
-24 28 -25 28 -50 13 -30 -21 -71 -84 -62 -98 4 -6 1 -9 -5 -8 -16 4 -64 -91
-110 -218 -36 -99 -49 -119 -92 -145 -16 -8 -18 -5 -18 23 0 49 -15 63 -57 59
-20 -2 -74 -53 -110 -105 -24 -35 -33 -43 -29 -26 3 14 11 53 17 88 10 54 16
67 46 90 95 73 169 180 185 272 17 91 -18 143 -74 114z m46 -95 c0 -39 -7 -77
-18 -97 -17 -32 -146 -176 -152 -169 -10 9 100 276 128 312 31 40 43 26 42
-46z m295 -11 c0 -13 -8 -41 -17 -64 -26 -62 -116 -217 -120 -206 -4 13 73
217 99 258 24 39 39 44 38 12z m334 -279 c-3 -85 -38 -126 -73 -84 -15 18 0
70 32 110 28 36 43 26 41 -26z m-60 -109 l29 -10 -20 -33 c-19 -31 -75 -77
-94 -77 -19 0 -21 36 -4 84 24 67 35 81 50 62 6 -9 24 -20 39 -26z"/>
<path d="M246 768 c-20 -23 -36 -45 -36 -49 0 -4 -14 -37 -30 -73 -58 -125
-100 -382 -68 -414 27 -27 46 -13 63 46 28 99 67 182 137 288 107 165 168 221
168 157 0 -56 -116 -211 -171 -228 -21 -7 -25 -30 -7 -41 6 -4 33 -6 60 -5 35
1 50 -3 54 -14 9 -23 9 -57 0 -84 -6 -17 -5 -22 4 -16 7 4 5 -5 -4 -23 -9 -17
-22 -34 -28 -38 -7 -5 -5 4 5 19 28 44 20 42 -36 -9 -59 -54 -156 -106 -230
-125 -58 -14 -46 -29 25 -29 59 0 169 40 230 85 123 90 144 250 37 272 l-30 6
28 17 c42 26 94 83 89 97 -3 7 0 12 6 10 15 -3 37 57 37 103 1 47 -23 80 -58
80 -21 0 -42 -14 -83 -57 -86 -92 -155 -202 -214 -343 -31 -74 -30 -36 2 87
23 88 83 231 115 274 15 20 5 49 -15 49 -8 0 -31 -19 -50 -42z"/>
<path d="M627 624 c-3 -3 -3 -12 -1 -19 3 -7 -4 -31 -15 -53 -23 -46 -14 -62
21 -38 12 9 19 16 14 16 -5 0 3 15 17 33 19 25 23 37 16 50 -10 17 -40 23 -52
11z"/>
<path d="M1328 624 c-4 -3 -4 -12 -1 -20 3 -8 -4 -30 -16 -50 -20 -34 -20 -54
-1 -54 14 0 71 91 68 109 -3 16 -38 27 -50 15z"/>
</g>
</svg>
